<svg width="180" height="231" viewBox="0 0 180 231" fill="none" xmlns="http://www.w3.org/2000/svg">
<path opacity="0.69" d="M168.867 20.2926C185.411 57.5204 182.371 141.243 158.586 151.8C134.802 162.357 73.4091 111.883 56.8655 74.6548C40.3219 37.427 74.8924 27.5436 98.6766 16.9865C122.461 6.42926 152.323 -16.9351 168.867 20.2926Z" fill="#CD9790"/>
<path d="M130.156 118.193C132.603 115.457 137.55 115.76 139.912 112.937C141.559 110.967 142.195 108.048 144.232 106.498C149.433 102.543 158.151 102.521 163.436 106.367C161.708 107.082 159.325 106.438 158.05 108.112C157.453 108.896 157.365 109.942 157.301 110.925C156.833 117.995 156.262 124.681 150.088 129.31C148.435 130.514 146.268 131.207 144.156 131.642C141.215 132.248 138.179 128.832 135.261 128.681C132.082 128.517 129.6 132.037 129.684 135.127C129.571 131.034 127.676 120.969 130.156 118.193Z" fill="#CD9790"/>
<path d="M165.131 46.8021C165.131 46.8021 156.487 54.8896 145.257 55.5766C134.027 56.2636 124.46 49.2909 124.46 49.2909C124.46 49.2909 133.103 41.2035 144.334 40.5164C155.564 39.8294 165.131 46.8021 165.131 46.8021Z" fill="#CD9790"/>
<path d="M75.8552 86.0308C75.8552 86.0308 87.6645 85.1812 95.7949 77.4072C103.925 69.6333 105.299 57.8807 105.299 57.8807C105.299 57.8807 93.4893 58.7304 85.3589 66.5043C77.2286 74.2783 75.8552 86.0308 75.8552 86.0308Z" fill="#CD9790"/>
<path opacity="0.69" d="M124.44 114.984C124.44 155.718 87.6588 231 61.6335 231C35.6082 231 0 159.965 0 119.232C0 78.4986 35.6082 83.4893 61.6335 83.4893C87.6588 83.4893 124.44 74.249 124.44 114.984Z" fill="#CD9790"/>
<path d="M49.5149 189.42C52.8538 187.881 57.3375 190.432 60.628 188.77C62.9248 187.61 64.6485 185.067 67.1446 184.492C70.0174 183.832 73.519 186.587 76.3141 185.765C78.9172 184.999 80.6277 180.482 81.0352 177.038C80.5603 181.056 80.4562 184.989 79.4552 188.733C78.4731 192.405 77.0074 195.698 75.5241 198.898C72.9591 204.429 68.7598 208.261 63.7412 209.297C61.7361 209.711 59.4525 209.395 57.3184 208.853C55.1931 208.314 53.8447 205.727 52.0169 203.934C50.0265 201.981 47.7751 201.416 45.641 200.311C43.2167 199.056 42.3476 197.316 40.4802 194.922C42.7301 195.846 45.1793 195.967 46.8048 194.251C47.9613 193.032 48.0712 190.087 49.5149 189.42Z" fill="#CD9790"/>
<path d="M110.059 122.96C110.059 122.96 104.428 133.369 93.9937 137.579C83.5592 141.789 72.2761 138.207 72.2761 138.207C72.2761 138.207 77.9074 127.798 88.3419 123.588C98.7763 119.378 110.059 122.96 110.059 122.96Z" fill="#CD9790"/>
<path d="M13.0156 122.818C13.0156 122.818 18.6469 133.227 29.0814 137.437C39.5158 141.647 50.7989 138.065 50.7989 138.065C50.7989 138.065 45.1676 127.656 34.7332 123.446C24.2987 119.236 13.0156 122.818 13.0156 122.818Z" fill="#CD9790"/>
<path d="M50.2383 148.615C49.4204 155.592 42.5506 161.294 35.5386 160.816C37.9863 164.106 42.146 166.049 46.2427 165.814" stroke="#CD9790" stroke-width="2" stroke-miterlimit="10"/>
</svg>
